<?xml version="1.0" encoding="UTF-8" standalone="no"?>
<svg
   xmlns:dc="http://purl.org/dc/elements/1.1/"
   xmlns:cc="http://creativecommons.org/ns#"
   xmlns:rdf="http://www.w3.org/1999/02/22-rdf-syntax-ns#"
   xmlns:svg="http://www.w3.org/2000/svg"
   xmlns="http://www.w3.org/2000/svg"
   xmlns:sodipodi="http://sodipodi.sourceforge.net/DTD/sodipodi-0.dtd"
   xmlns:inkscape="http://www.inkscape.org/namespaces/inkscape"
   sodipodi:docname="loc_red.svg"
   inkscape:version="1.0 (4035a4f, 2020-05-01)"
   id="svg5087"
   version="1.1"
   viewBox="0 0 78.281755 94.685975"
   height="94.685974mm"
   width="78.281754mm">
  <defs
     id="defs5081" />
  <sodipodi:namedview
     inkscape:document-rotation="0"
     inkscape:window-maximized="0"
     inkscape:window-y="235"
     inkscape:window-x="1094"
     inkscape:window-height="814"
     inkscape:window-width="1238"
     fit-margin-bottom="0"
     fit-margin-right="0"
     fit-margin-left="0"
     fit-margin-top="0"
     showgrid="false"
     inkscape:current-layer="layer1"
     inkscape:document-units="mm"
     inkscape:cy="230.11516"
     inkscape:cx="-119.01263"
     inkscape:zoom="0.21966881"
     inkscape:pageshadow="2"
     inkscape:pageopacity="0.0"
     borderopacity="1.0"
     bordercolor="#666666"
     pagecolor="#ffffff"
     id="base" />
  <metadata
     id="metadata5084">
    <rdf:RDF>
      <cc:Work
         rdf:about="">
        <dc:format>image/svg+xml</dc:format>
        <dc:type
           rdf:resource="http://purl.org/dc/dcmitype/StillImage" />
        <dc:title></dc:title>
      </cc:Work>
    </rdf:RDF>
  </metadata>
  <g
     transform="translate(-93.150793,-71.25225)"
     id="layer1"
     inkscape:groupmode="layer"
     inkscape:label="Layer 1">
    <path
       inkscape:connector-curvature="0"
       id="path924"
       d="m 117.06648,150.6602 c -14.11976,-14.1809 -15.32749,-15.44438 -16.81854,-17.59488 -3.53936,-5.10474 -5.665435,-10.30428 -6.741655,-16.48744 -0.478995,-2.75196 -0.472735,-9.43946 0.0115,-12.28423 1.13028,-6.640171 3.63671,-12.501006 7.556885,-17.670387 1.70463,-2.247835 5.7858,-6.239095 8.05572,-7.878245 4.68168,-3.38073 9.88537,-5.65406 15.71213,-6.86413 1.81688,-0.37732 3.13449,-0.510175 5.92701,-0.59762 5.41943,-0.169705 9.08441,0.340805 13.86438,1.931215 8.29458,2.75981 15.58779,8.393885 20.41391,15.769955 3.49061,5.334906 5.49917,11.064072 6.17827,17.622652 0.86798,8.38291 -1.0128,16.74638 -5.41829,24.09413 -2.21028,3.68643 -3.3931,4.97335 -18.69195,20.33696 l -14.83723,14.90004 z"
       style="opacity:1;fill:#ff9955;fill-opacity:1;fill-rule:nonzero;stroke:none;stroke-width:1.25992;stroke-linecap:round;stroke-linejoin:round;stroke-miterlimit:4;stroke-dasharray:none;stroke-dashoffset:0;stroke-opacity:1;paint-order:fill markers stroke" />
  </g>
</svg>
