<?xml version="1.0" encoding="UTF-8" standalone="no"?>
<svg
   xmlns:dc="http://purl.org/dc/elements/1.1/"
   xmlns:cc="http://creativecommons.org/ns#"
   xmlns:rdf="http://www.w3.org/1999/02/22-rdf-syntax-ns#"
   xmlns:svg="http://www.w3.org/2000/svg"
   xmlns="http://www.w3.org/2000/svg"
   xmlns:sodipodi="http://sodipodi.sourceforge.net/DTD/sodipodi-0.dtd"
   xmlns:inkscape="http://www.inkscape.org/namespaces/inkscape"
   width="78.281738mm"
   height="94.685966mm"
   viewBox="0 0 78.281737 94.685967"
   version="1.1"
   id="svg4530"
   inkscape:version="1.0 (4035a4f, 2020-05-01)"
   sodipodi:docname="lo c.svg">
  <defs
     id="defs4524" />
  <sodipodi:namedview
     id="base"
     pagecolor="#ffffff"
     bordercolor="#666666"
     borderopacity="1.0"
     inkscape:pageopacity="0.0"
     inkscape:pageshadow="2"
     inkscape:zoom="0.35"
     inkscape:cx="-360.63741"
     inkscape:cy="196.13921"
     inkscape:document-units="mm"
     inkscape:current-layer="layer1"
     showgrid="false"
     fit-margin-top="0"
     fit-margin-left="0"
     fit-margin-right="0"
     fit-margin-bottom="0"
     inkscape:window-width="1186"
     inkscape:window-height="790"
     inkscape:window-x="793"
     inkscape:window-y="219"
     inkscape:window-maximized="0"
     inkscape:document-rotation="0" />
  <metadata
     id="metadata4527">
    <rdf:RDF>
      <cc:Work
         rdf:about="">
        <dc:format>image/svg+xml</dc:format>
        <dc:type
           rdf:resource="http://purl.org/dc/dcmitype/StillImage" />
        <dc:title></dc:title>
      </cc:Work>
    </rdf:RDF>
  </metadata>
  <g
     inkscape:label="Layer 1"
     inkscape:groupmode="layer"
     id="layer1"
     transform="translate(-62.156745,-185.40106)">
    <path
       style="opacity:1;fill:#ff8080;fill-opacity:1;fill-rule:nonzero;stroke:none;stroke-width:1.25992;stroke-linecap:round;stroke-linejoin:round;stroke-miterlimit:4;stroke-dasharray:none;stroke-dashoffset:0;stroke-opacity:1;paint-order:fill markers stroke"
       d="m 86.072433,264.80901 c -14.119759,-14.1809 -15.327492,-15.44438 -16.818535,-17.59488 -3.539367,-5.10474 -5.665441,-10.30428 -6.741659,-16.48744 -0.478995,-2.75196 -0.47274,-9.43946 0.0115,-12.28423 1.130277,-6.64017 3.63671,-12.50101 7.556882,-17.67039 1.704633,-2.24783 5.785805,-6.23909 8.055725,-7.87825 4.681675,-3.38073 9.885369,-5.65406 15.712131,-6.86413 1.816873,-0.37731 3.134483,-0.51017 5.927004,-0.59761 5.419429,-0.16971 9.084419,0.3408 13.864379,1.93121 8.29458,2.75981 15.58779,8.39388 20.41391,15.76996 3.49061,5.3349 5.49917,11.06407 6.17826,17.62265 0.86799,8.38291 -1.01279,16.74638 -5.41829,24.09413 -2.21027,3.68643 -3.3931,4.97335 -18.69195,20.33696 l -14.83722,14.90004 z"
       id="path922"
       inkscape:connector-curvature="0" />
  </g>
</svg>
