<?xml version="1.0" encoding="UTF-8" standalone="no"?>
<svg
   xmlns:dc="http://purl.org/dc/elements/1.1/"
   xmlns:cc="http://creativecommons.org/ns#"
   xmlns:rdf="http://www.w3.org/1999/02/22-rdf-syntax-ns#"
   xmlns:svg="http://www.w3.org/2000/svg"
   xmlns="http://www.w3.org/2000/svg"
   xmlns:sodipodi="http://sodipodi.sourceforge.net/DTD/sodipodi-0.dtd"
   xmlns:inkscape="http://www.inkscape.org/namespaces/inkscape"
   sodipodi:docname="loc_darker_green.svg"
   inkscape:version="1.0 (4035a4f, 2020-05-01)"
   id="svg8"
   version="1.1"
   viewBox="0 0 78.281755 94.685983"
   height="94.685982mm"
   width="78.281754mm">
  <defs
     id="defs2" />
  <sodipodi:namedview
     inkscape:document-rotation="0"
     inkscape:window-maximized="0"
     inkscape:window-y="23"
     inkscape:window-x="974"
     inkscape:window-height="1362"
     inkscape:window-width="1041"
     fit-margin-bottom="0"
     fit-margin-right="0"
     fit-margin-left="0"
     fit-margin-top="0"
     showgrid="false"
     inkscape:current-layer="layer1"
     inkscape:document-units="mm"
     inkscape:cy="310.36269"
     inkscape:cx="-252.06599"
     inkscape:zoom="0.35"
     inkscape:pageshadow="2"
     inkscape:pageopacity="0.0"
     borderopacity="1.0"
     bordercolor="#666666"
     pagecolor="#ffffff"
     id="base" />
  <metadata
     id="metadata5">
    <rdf:RDF>
      <cc:Work
         rdf:about="">
        <dc:format>image/svg+xml</dc:format>
        <dc:type
           rdf:resource="http://purl.org/dc/dcmitype/StillImage" />
        <dc:title></dc:title>
      </cc:Work>
    </rdf:RDF>
  </metadata>
  <g
     transform="translate(-16.799602,238.68823)"
     id="layer1"
     inkscape:groupmode="layer"
     inkscape:label="Layer 1">
    <path
       inkscape:connector-curvature="0"
       id="path920"
       d="m 40.715289,-159.28027 c -14.11976,-14.18091 -15.32749,-15.44439 -16.818535,-17.59489 -3.539365,-5.10474 -5.66544,-10.30428 -6.74166,-16.48745 -0.478995,-2.75195 -0.472735,-9.43945 0.0115,-12.28422 1.130275,-6.64017 3.63671,-12.50101 7.55688,-17.67039 1.704635,-2.24784 5.785805,-6.23909 8.055726,-7.87825 4.681675,-3.38073 9.885369,-5.65406 15.712134,-6.86413 1.81687,-0.37731 3.13448,-0.51017 5.927005,-0.59761 5.41943,-0.16971 9.084415,0.3408 13.864378,1.93121 8.29458,2.75981 15.587792,8.39388 20.413917,15.76996 3.490605,5.3349 5.49917,11.06408 6.178265,17.62265 0.867985,8.38291 -1.012795,16.74638 -5.41829,24.09413 -2.210275,3.68643 -3.3931,4.97335 -18.691952,20.33696 l -14.837228,14.90005 z"
       style="opacity:1;fill:#71c837;fill-opacity:1;fill-rule:nonzero;stroke:none;stroke-width:1.25992;stroke-linecap:round;stroke-linejoin:round;stroke-miterlimit:4;stroke-dasharray:none;stroke-dashoffset:0;stroke-opacity:1;paint-order:fill markers stroke" />
  </g>
</svg>
